/* XPM */
static char *_6853_bb9ff7bbd94ceb7a50e5195587bcfc34b4f4445a757864edd077355bcd41d797[] = {
/* columns rows colors chars-per-pixel */
"48 48 2 1 ",
"  c #649bce",
". c None",
/* pixels */
"................................................",
"................................................",
"................................................",
"................................................",
"................................................",
"........                                ........",
"......                                    ......",
"......                                    ......",
".....                                      .....",
".....                                      .....",
".....     ............................     .....",
".....     ............................     .....",
".....     ............................     .....",
".....     ............................     .....",
".....     .............    ...........     .....",
".....     ...........      ...........     .....",
".....     ..........       ...........     .....",
".....     ........         ...........     .....",
".....     ........         ...........     .....",
".....     ........         ...........     .....",
".....     .........        ...........     .....",
".....     ............     ...........     .....",
".....     ............     ...........     .....",
".....     ............     ...........     .....",
".....     ............     ...........     .....",
".....     ............     ...........     .....",
".....     ............     ...........     .....",
".....     ............     ...........     .....",
".....     ............     ...........     .....",
".....     ............     ...........     .....",
".....     ............     ...........     .....",
".....     ............     ...........     .....",
".....     ............     ...........     .....",
".....     .............    ...........     .....",
".....     .............   ............     .....",
".....     ............................     .....",
".....     ............................     .....",
".....     ............................     .....",
".....                                      .....",
".....                                      .....",
"......                                    ......",
"......                                    ......",
"........                                ........",
"................................................",
"................................................",
"................................................",
"................................................",
"................................................"
};
