/* XPM */
static char *_6898_db852c2472ae64122446421fa48a62ecf397381b428f7a1c63583083a3094c3e[] = {
/* columns rows colors chars-per-pixel */
"48 48 2 1 ",
"  c #649bce",
". c None",
/* pixels */
"................................................",
"................................................",
"................................................",
"................................................",
"................................................",
"........                                ........",
"......                                    ......",
"......                                    ......",
".....                                      .....",
".....                                      .....",
".....     ............................     .....",
".....     ............................     .....",
".....     ............................     .....",
".....     ...........      ...........     .....",
".....     ..........        ..........     .....",
".....     .........          .........     .....",
".....     ........            ........     .....",
".....     ........     ..     ........     .....",
".....     ........    ....     .......     .....",
".....     .........  .....     .......     .....",
".....     ................     .......     .....",
".....     ...............     ........     .....",
".....     ...............     ........     .....",
".....     ..............     .........     .....",
".....     .............      .........     .....",
".....     ............      ..........     .....",
".....     ............     ...........     .....",
".....     ...........     ............     .....",
".....     ..........      ............     .....",
".....     .........      .............     .....",
".....     .........     ..............     .....",
".....     ........            ........     .....",
".....     .......              .......     .....",
".....     .......              .......     .....",
".....     ........            ........     .....",
".....     ............................     .....",
".....     ............................     .....",
".....     ............................     .....",
".....                                      .....",
".....                                      .....",
"......                                    ......",
"......                                    ......",
"........                                ........",
"................................................",
"................................................",
"................................................",
"................................................",
"................................................"
};
