/* XPM */
static char *_3481_7cee90852e254471c9175f6b33743f85c6083d21264d636d645aabea7fbac20b[] = {
/* columns rows colors chars-per-pixel */
"48 48 2 1 ",
"  c gray",
". c None",
/* pixels */
"................................................",
"................................................",
"................................................",
"................................................",
"................................................",
"........                                ........",
"......                                    ......",
"......                                    ......",
".....                                      .....",
".....                                      .....",
".....     ............................     .....",
".....     ............................     .....",
".....     ............................     .....",
".....     ............................     .....",
".....     ........            ........     .....",
".....     .......              .......     .....",
".....     .......              .......     .....",
".....     ........            ........     .....",
".....     ..............     .........     .....",
".....     .............      .........     .....",
".....     ............      ..........     .....",
".....     ............     ...........     .....",
".....     ...........       ..........     .....",
".....     ...........        .........     .....",
".....     ...........         ........     .....",
".....     .............       ........     .....",
".....     ...............     ........     .....",
".....     ................     .......     .....",
".....     ................     .......     .....",
".....     ................     .......     .....",
".....     ........   ....     ........     .....",
".....     .......             ........     .....",
".....     .......            .........     .....",
".....     ........           .........     .....",
".....     .........         ..........     .....",
".....     ...........     ............     .....",
".....     ............................     .....",
".....     ............................     .....",
".....                                      .....",
".....                                      .....",
"......                                    ......",
"......                                    ......",
"........                                ........",
"................................................",
"................................................",
"................................................",
"................................................",
"................................................"
};
