/* XPM */
static char *_743_4aad0088b1883df9484b26335d5b683c1096d4dbe0730187918ff1238cee0bc7[] = {
/* columns rows colors chars-per-pixel */
"48 48 2 1 ",
"  c gray",
". c None",
/* pixels */
"................................................",
"................................................",
"................................................",
"................................................",
"................................................",
"........                                ........",
"......                                    ......",
"......                                    ......",
".....                                      .....",
".....                                      .....",
".....     ............................     .....",
".....     ............................     .....",
".....     ............   .............     .....",
".....     ...........    .............     .....",
".....     ...........    .............     .....",
".....     ..........     .............     .....",
".....     ..........     .............     .....",
".....     ..........    ..............     .....",
".....     .........     ..............     .....",
".....     .........     ..   .........     .....",
".....     .........    ...    ........     .....",
".....     ........     ..     ........     .....",
".....     ........     ..     ........     .....",
".....     ........    ...     ........     .....",
".....     .......     ...     ........     .....",
".....     .......             ........     .....",
".....     .......             ........     .....",
".....     .......             ........     .....",
".....     .......             ........     .....",
".....     ...............     ........     .....",
".....     ...............     ........     .....",
".....     ...............     ........     .....",
".....     ...............     ........     .....",
".....     ................    ........     .....",
".....     ................   .........     .....",
".....     ............................     .....",
".....     ............................     .....",
".....     ............................     .....",
".....                                      .....",
".....                                      .....",
"......                                    ......",
"......                                    ......",
"........                                ........",
"................................................",
"................................................",
"................................................",
"................................................",
"................................................"
};
