/* XPM */
static char *_531_94b9199ebb4735fe7ae7c5c2e58fc90b8cbeac422ff86113f16cf7b546eca7f3[] = {
/* columns rows colors chars-per-pixel */
"48 48 2 1 ",
"  c #26C3EC",
". c None",
/* pixels */
"................................................",
"................................................",
"................................................",
"................................................",
"................................................",
"........                                ........",
"......                                    ......",
"......                                    ......",
".....                                      .....",
".....                                      .....",
".....     ............................     .....",
".....     ............................     .....",
".....     ............................     .....",
".....     .........           ........     .....",
".....     .........            .......     .....",
".....     .........            .......     .....",
".....     ........            ........     .....",
".....     ........     ...............     .....",
".....     ........     ...............     .....",
".....     ........     ...............     .....",
".....     ........       .............     .....",
".....     ........         ...........     .....",
".....     .......            .........     .....",
".....     .......            .........     .....",
".....     .......             ........     .....",
".....     ........   ....     ........     .....",
".....     ................     .......     .....",
".....     ................     .......     .....",
".....     ................     .......     .....",
".....     ........   .....    ........     .....",
".....     ........    ..      ........     .....",
".....     .......             ........     .....",
".....     ........           .........     .....",
".....     ........          ..........     .....",
".....     ..........      ............     .....",
".....     ............................     .....",
".....     ............................     .....",
".....     ............................     .....",
".....                                      .....",
".....                                      .....",
"......                                    ......",
"......                                    ......",
"........                                ........",
"................................................",
"................................................",
"................................................",
"................................................",
"................................................"
};
