/* XPM */
static char *_1066_e3c58075bfa1195accea0ef70341b2289b30cf16cb26c5b49c18fa2025e89c65[] = {
/* columns rows colors chars-per-pixel */
"48 48 2 1 ",
"  c #26C3EC",
". c None",
/* pixels */
"................................................",
"................................................",
"................................................",
"................................................",
"................................................",
"........                                ........",
"......                                    ......",
"......                                    ......",
".....                                      .....",
".....                                      .....",
".....     ............................     .....",
".....     ............................     .....",
".....     ............................     .....",
".....     ..............   ...........     .....",
".....     .............     ..........     .....",
".....     .............     ..........     .....",
".....     ............     ...........     .....",
".....     ...........      ...........     .....",
".....     ...........     ............     .....",
".....     ..........     .............     .....",
".....     ..........      ............     .....",
".....     .........         ..........     .....",
".....     ........           .........     .....",
".....     ........            ........     .....",
".....     .......              .......     .....",
".....     .......     ....     .......     .....",
".....     .......    ......    .......     .....",
".....     .......    ......    .......     .....",
".....     .......    ......    .......     .....",
".....     .......     ....     .......     .....",
".....     .......      ..      .......     .....",
".....     ........            ........     .....",
".....     ........            ........     .....",
".....     .........          .........     .....",
".....     ...........      ...........     .....",
".....     ............................     .....",
".....     ............................     .....",
".....     ............................     .....",
".....                                      .....",
".....                                      .....",
"......                                    ......",
"......                                    ......",
"........                                ........",
"................................................",
"................................................",
"................................................",
"................................................",
"................................................"
};
