/* XPM */
static char *_149_35928a16c4beb25a9430f07e0e518511e038c4cd82b3cb8676d7b1285476b340[] = {
/* columns rows colors chars-per-pixel */
"48 48 2 1 ",
"  c #649bce",
". c None",
/* pixels */
"................................................",
"................................................",
"................................................",
"................................................",
"................................................",
"........                                ........",
"......                                    ......",
"......                                    ......",
".....                                      .....",
".....                                      .....",
".....     ............................     .....",
".....     ............................     .....",
".....     ............................     .....",
".....     ............................     .....",
".....     ........            ........     .....",
".....     .......              .......     .....",
".....     .......              .......     .....",
".....     ........            ........     .....",
".....     ...............     ........     .....",
".....     ...............     ........     .....",
".....     ...............    .........     .....",
".....     ..............     .........     .....",
".....     ..............     .........     .....",
".....     ..............    ..........     .....",
".....     .............     ..........     .....",
".....     .............     ..........     .....",
".....     .............    ...........     .....",
".....     ............     ...........     .....",
".....     ............     ...........     .....",
".....     ............    ............     .....",
".....     ...........     ............     .....",
".....     ...........     ............     .....",
".....     ...........    .............     .....",
".....     ..........     .............     .....",
".....     ..........     .............     .....",
".....     ...........   ..............     .....",
".....     ............................     .....",
".....     ............................     .....",
".....                                      .....",
".....                                      .....",
"......                                    ......",
"......                                    ......",
"........                                ........",
"................................................",
"................................................",
"................................................",
"................................................",
"................................................"
};
