/* XPM */
static char *_4668_f8df7a84ef74c342eb895fb2a0b33defd62341f14cb42f0f487685f020c5b213[] = {
/* columns rows colors chars-per-pixel */
"48 48 2 1 ",
"  c #26C3EC",
". c None",
/* pixels */
"................................................",
"................................................",
"................................................",
"................................................",
"................................................",
"........                                ........",
"......                                    ......",
"......                                    ......",
".....                                      .....",
".....                                      .....",
".....     ............................     .....",
".....     ............................     .....",
".....     ............................     .....",
".....     ...........      ...........     .....",
".....     ..........        ..........     .....",
".....     .........          .........     .....",
".....     ........            ........     .....",
".....     ........     ..     ........     .....",
".....     ........    ....    ........     .....",
".....     ........    ....    ........     .....",
".....     ........     ..     ........     .....",
".....     ........            ........     .....",
".....     .........          .........     .....",
".....     .........          .........     .....",
".....     ........            ........     .....",
".....     .......              .......     .....",
".....     .......     ....     .......     .....",
".....     .......     .....    .......     .....",
".....     .......    ......    .......     .....",
".....     .......     ....     .......     .....",
".....     .......      ..      .......     .....",
".....     ........            ........     .....",
".....     ........            ........     .....",
".....     ..........         .........     .....",
".....     ...........      ...........     .....",
".....     ............................     .....",
".....     ............................     .....",
".....     ............................     .....",
".....                                      .....",
".....                                      .....",
"......                                    ......",
"......                                    ......",
"........                                ........",
"................................................",
"................................................",
"................................................",
"................................................",
"................................................"
};
