/* XPM */
static char *_513_79f5e779016c6846743f01f953277a71da636f37de58d206ade8a7777d80600a[] = {
/* columns rows colors chars-per-pixel */
"48 48 2 1 ",
"  c gray",
". c None",
/* pixels */
"................................................",
"................................................",
"................................................",
"................................................",
"................................................",
"........                                ........",
"......                                    ......",
"......                                    ......",
".....                                      .....",
".....                                      .....",
".....     ............................     .....",
".....     ............................     .....",
".....     ............................     .....",
".....     ............................     .....",
".....     ..........        ..........     .....",
".....     .........          .........     .....",
".....     ........            ........     .....",
".....     .......              .......     .....",
".....     .......     ....     .......     .....",
".....     .......    ......    .......     .....",
".....     .......    ......    .......     .....",
".....     .......    ......    .......     .....",
".....     .......    .....     .......     .....",
".....     .......     ....     .......     .....",
".....     .......              .......     .....",
".....     ........            ........     .....",
".....     .........           ........     .....",
".....     ..........         .........     .....",
".....     .............     ..........     .....",
".....     ............      ..........     .....",
".....     ............     ...........     .....",
".....     ...........     ............     .....",
".....     ...........     ............     .....",
".....     ..........     .............     .....",
".....     ..........     .............     .....",
".....     ...........   ..............     .....",
".....     ............................     .....",
".....     ............................     .....",
".....                                      .....",
".....                                      .....",
"......                                    ......",
"......                                    ......",
"........                                ........",
"................................................",
"................................................",
"................................................",
"................................................",
"................................................"
};
