/* XPM */
static char *fcefb8c641744a29d3744e029e31103cwqXV2EVU60XBjBqL[] = {
/* columns rows colors chars-per-pixel */
"48 48 2 1 ",
"  c None",
". c white",
/* pixels */
"                                                ",
"                                                ",
"                                                ",
"                                                ",
"                                                ",
"                                                ",
"                                                ",
"                                                ",
"                                                ",
"                                                ",
"                                                ",
"                                                ",
"    ..............          ............        ",
"   ...............     .    .............       ",
"  ................    ..    ..............      ",
"  ................   ..     ..............      ",
"  ....               ..               ....      ",
"  ....              ...               ....      ",
"  ....             ....               ......    ",
"  ....             ....               .......   ",
"  ....            ....                ........  ",
"  ....           .....                ........  ",
"  ....          ..............        ........  ",
"  ....          .............         ........  ",
"  ....         .............          ........  ",
"  ....        .............           ........  ",
"  ....                .....           ........  ",
"  ....                ....            ........  ",
"  ....               ....             .......   ",
"  ....               ....             ......    ",
"  ....               ...              ....      ",
"  ....               ..               ....      ",
"  ..............     ..   ................      ",
"  ..............    ..    ................      ",
"   .............    .     ...............       ",
"    ............          ..............        ",
"                                                ",
"                                                ",
"                                                ",
"                                                ",
"                                                ",
"                                                ",
"                                                ",
"                                                ",
"                                                ",
"                                                ",
"                                                ",
"                                                "
};
