/* XPM */
static char *_a75687f70e149b19332b8b218cdfaadeQl3ZxoMmmHRIMlZ[] = {
/* columns rows colors chars-per-pixel */
"48 48 2 1 ",
"  c None",
". c #0b674e",
/* pixels */
"                                                ",
"                                                ",
"                                                ",
"                                                ",
"                                                ",
"                                                ",
"                                                ",
"                                                ",
"                                                ",
"                                                ",
"                                                ",
"                                                ",
"    ....................................        ",
"   ......................................       ",
"  ........................................      ",
"  ........................................      ",
"  ....                                ....      ",
"  ....                                ....      ",
"  ....  ....  ....  ....              ......    ",
"  ....  ....  ....  ....              .......   ",
"  ....  ....  ....  ....              ........  ",
"  ....  ....  ....  ....              ........  ",
"  ....  ....  ....  ....              ........  ",
"  ....  ....  ....  ....              ........  ",
"  ....  ....  ....  ....              ........  ",
"  ....  ....  ....  ....              ........  ",
"  ....  ....  ....  ....              ........  ",
"  ....  ....  ....  ....              ........  ",
"  ....  ....  ....  ....              .......   ",
"  ....  ....  ....  ....              ......    ",
"  ....   ...   ...   ...              ....      ",
"  ....                                ....      ",
"  ........................................      ",
"  ........................................      ",
"   ......................................       ",
"    ....................................        ",
"                                                ",
"                                                ",
"                                                ",
"                                                ",
"                                                ",
"                                                ",
"                                                ",
"                                                ",
"                                                ",
"                                                ",
"                                                ",
"                                                "
};
