/* XPM */
static char *_42cd127389f4569f0e45adce72e5816HXDzSljZzDXKGqVR[] = {
/* columns rows colors chars-per-pixel */
"48 48 2 1 ",
"  c None",
". c #bd1e01",
/* pixels */
"                                                ",
"                                                ",
"                                                ",
"                                                ",
"                                                ",
"                                                ",
"                                                ",
"                                                ",
"                                                ",
"                                                ",
"                                                ",
"                                                ",
"    ....................................        ",
"   ......................................       ",
"  ........................................      ",
"  ........................................      ",
"  ....                                ....      ",
"  ....                                ....      ",
"  ....                                ......    ",
"  ....                                .......   ",
"  ....                                ........  ",
"  ....                                ........  ",
"  ....                                ........  ",
"  ....                                ........  ",
"  ....                                ........  ",
"  ....                                ........  ",
"  ....                                ........  ",
"  ....                                ........  ",
"  ....                                .......   ",
"  ....                                ......    ",
"  ....                                ....      ",
"  ....                                ....      ",
"  ........................................      ",
"  ........................................      ",
"   ......................................       ",
"    ....................................        ",
"                                                ",
"                                                ",
"                                                ",
"                                                ",
"                                                ",
"                                                ",
"                                                ",
"                                                ",
"                                                ",
"                                                ",
"                                                ",
"                                                "
};
