/* XPM */
static char *_950925ae9d34a4096b07838d30c7c35lAYZW1c1ONCgEIL5[] = {
/* columns rows colors chars-per-pixel */
"48 48 2 1 ",
"  c None",
". c #0b674e",
/* pixels */
"                                                ",
"                                                ",
"                                                ",
"                                                ",
"                                                ",
"                                                ",
"                                                ",
"                                                ",
"                                                ",
"                                                ",
"                                                ",
"                                                ",
"    ....................................        ",
"   ......................................       ",
"  ........................................      ",
"  ........................................      ",
"  ....                                ....      ",
"  ....                                ....      ",
"  ....  ....  ....  ....  ....  ....  ......    ",
"  ....  ....  ....  ....  ....  ....  .......   ",
"  ....  ....  ....  ....  ....  ....  ........  ",
"  ....  ....  ....  ....  ....  ....  ........  ",
"  ....  ....  ....  ....  ....  ....  ........  ",
"  ....  ....  ....  ....  ....  ....  ........  ",
"  ....  ....  ....  ....  ....  ....  ........  ",
"  ....  ....  ....  ....  ....  ....  ........  ",
"  ....  ....  ....  ....  ....  ....  ........  ",
"  ....  ....  ....  ....  ....  ....  ........  ",
"  ....  ....  ....  ....  ....  ....  .......   ",
"  ....  ....  ....  ....  ....  ....  ......    ",
"  ....   ...   ...   ...   ...   ...  ....      ",
"  ....                                ....      ",
"  ........................................      ",
"  ........................................      ",
"   ......................................       ",
"    ....................................        ",
"                                                ",
"                                                ",
"                                                ",
"                                                ",
"                                                ",
"                                                ",
"                                                ",
"                                                ",
"                                                ",
"                                                ",
"                                                ",
"                                                "
};
