/* XPM */
static char *cd998a9e2c90400299325a0934db376avmc7TiJIvZnd7P9e[] = {
/* columns rows colors chars-per-pixel */
"48 48 2 1 ",
"  c None",
". c #0b674e",
/* pixels */
"                                                ",
"                                                ",
"                                                ",
"                                                ",
"                                                ",
"                                                ",
"                                                ",
"                                                ",
"                                                ",
"                                                ",
"                                                ",
"                                                ",
"    ....................................        ",
"   ......................................       ",
"  ........................................      ",
"  ........................................      ",
"  ....                                ....      ",
"  ....                                ....      ",
"  ....  ....  ....  ....  ....        ......    ",
"  ....  ....  ....  ....  ....        .......   ",
"  ....  ....  ....  ....  ....        ........  ",
"  ....  ....  ....  ....  ....        ........  ",
"  ....  ....  ....  ....  ....        ........  ",
"  ....  ....  ....  ....  ....        ........  ",
"  ....  ....  ....  ....  ....        ........  ",
"  ....  ....  ....  ....  ....        ........  ",
"  ....  ....  ....  ....  ....        ........  ",
"  ....  ....  ....  ....  ....        ........  ",
"  ....  ....  ....  ....  ....        .......   ",
"  ....  ....  ....  ....  ....        ......    ",
"  ....   ...   ...   ...   ...        ....      ",
"  ....                                ....      ",
"  ........................................      ",
"  ........................................      ",
"   ......................................       ",
"    ....................................        ",
"                                                ",
"                                                ",
"                                                ",
"                                                ",
"                                                ",
"                                                ",
"                                                ",
"                                                ",
"                                                ",
"                                                ",
"                                                ",
"                                                "
};
