/* XPM */
static char *_3cc4f03b0694a77b0b0495bcfe96ade2G7HCMP0c1WrzxWj[] = {
/* columns rows colors chars-per-pixel */
"48 48 2 1 ",
"  c None",
". c #0b674e",
/* pixels */
"                                                ",
"                                                ",
"                                                ",
"                                                ",
"                                                ",
"                                                ",
"                                                ",
"                                                ",
"                                                ",
"                                                ",
"                                                ",
"                                                ",
"    ....................................        ",
"   ......................................       ",
"  ........................................      ",
"  ........................................      ",
"  ....                                ....      ",
"  ....                                ....      ",
"  ....  ....                          ......    ",
"  ....  ....                          .......   ",
"  ....  ....                          ........  ",
"  ....  ....                          ........  ",
"  ....  ....                          ........  ",
"  ....  ....                          ........  ",
"  ....  ....                          ........  ",
"  ....  ....                          ........  ",
"  ....  ....                          ........  ",
"  ....  ....                          ........  ",
"  ....  ....                          .......   ",
"  ....  ....                          ......    ",
"  ....   ...                          ....      ",
"  ....                                ....      ",
"  ........................................      ",
"  ........................................      ",
"   ......................................       ",
"    ....................................        ",
"                                                ",
"                                                ",
"                                                ",
"                                                ",
"                                                ",
"                                                ",
"                                                ",
"                                                ",
"                                                ",
"                                                ",
"                                                ",
"                                                "
};
