/* XPM */
static char *_9b3d4e694e24ca4c9825d397b308503I4hJKs7byhM3AvnF[] = {
/* columns rows colors chars-per-pixel */
"48 48 2 1 ",
"  c None",
". c #0b674e",
/* pixels */
"                                                ",
"                                                ",
"                                                ",
"                                                ",
"                                                ",
"                                                ",
"                                                ",
"                                                ",
"                                                ",
"                                                ",
"                                                ",
"                                                ",
"    ....................................        ",
"   ......................................       ",
"  ........................................      ",
"  ........................................      ",
"  ....                                ....      ",
"  ....                                ....      ",
"  ....  ....  ....                    ......    ",
"  ....  ....  ....                    .......   ",
"  ....  ....  ....                    ........  ",
"  ....  ....  ....                    ........  ",
"  ....  ....  ....                    ........  ",
"  ....  ....  ....                    ........  ",
"  ....  ....  ....                    ........  ",
"  ....  ....  ....                    ........  ",
"  ....  ....  ....                    ........  ",
"  ....  ....  ....                    ........  ",
"  ....  ....  ....                    .......   ",
"  ....  ....  ....                    ......    ",
"  ....   ...   ...                    ....      ",
"  ....                                ....      ",
"  ........................................      ",
"  ........................................      ",
"   ......................................       ",
"    ....................................        ",
"                                                ",
"                                                ",
"                                                ",
"                                                ",
"                                                ",
"                                                ",
"                                                ",
"                                                ",
"                                                ",
"                                                ",
"                                                ",
"                                                "
};
