/* XPM */
static char *result[] = {
/* columns rows colors chars-per-pixel */
"48 48 2 1 ",
"  c #723277",
". c None",
/* pixels */
"................................................",
"................................................",
"................................................",
"................................................",
"................................................",
"................................................",
"................................................",
"         ...        ............................",
".        ...         ...........................",
"..        ...        ...........................",
"..         ...        ..........................",
"...        ...         .........................",
"....        ...        .........................",
"....         ...        ........................",
".....        ...         .......................",
"......        ...        .......................",
"......         ...        ......................",
".......        ...         ...                  ",
"........        ...        ...                  ",
"........         ...        ...                 ",
".........        ...         ...                ",
"..........        ...        ...                ",
"..........         ...        ...               ",
"...........        ...         .................",
"...........        ...         .................",
"..........         ...          ...             ",
"..........        ...            ...            ",
".........        ...             ...            ",
"........         ...              ...           ",
"........        ...                ...          ",
".......        ...                 ...          ",
"......         ...        ..        ............",
"......        ...        ...         ...........",
".....        ...         ....        ...........",
"....         ...        ......        ..........",
"....        ...        .......         .........",
"...        ...         ........        .........",
"..         ...        ..........        ........",
"..        ...        ...........         .......",
".        ...         ............        .......",
"         ...        ..............        ......",
"................................................",
"................................................",
"................................................",
"................................................",
"................................................",
"................................................",
"................................................"
};
