/* XPM */
static char *aa4cebf23558419dea83dd5ba61692cdDtMYtnELq6622F91[] = {
/* columns rows colors chars-per-pixel */
"48 48 2 1 ",
"  c None",
". c #1899d3",
/* pixels */
"                                                ",
"                                                ",
"                                                ",
"                                                ",
"                                                ",
"                                                ",
"                                                ",
"                                                ",
"                                                ",
"                   ..........                   ",
"               ..................               ",
"            ........................            ",
"          ............................          ",
"        ................................        ",
"       ..................................       ",
"      ....................................      ",
"    ..............            ..............    ",
"   ............                  ............   ",
"    .........                      .........    ",
"     .......       ..........       .......     ",
"      ....      ................      ....      ",
"       ..     ....................     ..       ",
"             ......................             ",
"           ..........................           ",
"          ............................          ",
"          ............................          ",
"           .........        .........           ",
"            ......            ......            ",
"             ...                ...             ",
"                                                ",
"                    ........                    ",
"                  ............                  ",
"                 ..............                 ",
"                  ............                  ",
"                   ..........                   ",
"                    ........                    ",
"                     ......                     ",
"                       ...                      ",
"                        .                       ",
"                                                ",
"                                                ",
"                                                ",
"                                                ",
"                                                ",
"                                                ",
"                                                ",
"                                                ",
"                                                "
};
