/* XPM */
static char *_1012_be00a196ea76aafe0f5b16d12e603b699f40f5b227a53f1d4f7db3ba45ac1580[] = {
/* columns rows colors chars-per-pixel */
"48 48 2 1 ",
"  c #d74322",
". c None",
/* pixels */
"................................................",
"................................................",
"................................................",
"................................................",
"................................................",
"................................................",
"........ .......................................",
".......   ..................   .................",
"......     ............ ....     ...............",
".......     ..........  ....       .............",
"........     ........   ....        ............",
".........     ......    ......       ...........",
"..........     .....    ........      ..........",
"...........     .....   .........      .........",
"............     .....  ..........     .........",
".............     ..... ...........     ........",
"..............     ......... .......    ........",
"...............     ........  ......     .......",
"......               .......   ......    .......",
"......                ......    .....    .......",
"......                 .....    ......    ......",
"......                  .....    .....    ......",
"......                   .....   .....    ......",
"......                    .....  .....    ......",
"......                     ..... .....    ......",
"......                      ..........    ......",
"......                       .........    ......",
"......                  .     .......     ......",
"......                  ..     ......    .......",
"......                  ...     .....    .......",
"..............          ....     .....   .......",
"................        .....     ..... ........",
"................        ......     .............",
"..................      .......     ............",
"...................     ........     ...........",
"...................     ........      ..........",
"....................    ......         .........",
".....................   ....            ........",
"....................... ....       .     .......",
"....................... ....     ....     ......",
"............................   .......   .......",
"....................................... ........",
"................................................",
"................................................",
"................................................",
"................................................",
"................................................",
"................................................"
};
