/* XPM */
static char *ec0a66ac84604a06856ab4a6384beac5vF2qHc0IuiKqHhIQ[] = {
/* columns rows colors chars-per-pixel */
"48 48 2 1 ",
"  c None",
". c #d74322",
/* pixels */
"                                                ",
"                                                ",
"                                                ",
"                                                ",
"                                                ",
"                                                ",
"                                                ",
"                            ...                 ",
"                       .    .....               ",
"                      ..    .......             ",
"                     ...    ........            ",
"                    ....      .......           ",
"                   .....        ......          ",
"                  ......         ......         ",
"                 .......          .....         ",
"                ........           .....        ",
"               .........    .       ....        ",
"              ..........    ..      .....       ",
"      ..................    ...      ....       ",
"      ..................    ....     ....       ",
"      ..................    ....      ....      ",
"      ..................    .....     ....      ",
"      ..................    .....     ....      ",
"      ..................    .....     ....      ",
"      ..................    .....     ....      ",
"      ..................    .....     ....      ",
"      ..................    .....     ....      ",
"      ..................    ....      ....      ",
"      ..................    ....     ....       ",
"      ..................    ...      ....       ",
"              ..........    ..      .....       ",
"               .........    .       ....        ",
"                ........           .....        ",
"                  ......          .....         ",
"                  ......         ......         ",
"                   .....        ......          ",
"                    ....      .......           ",
"                     ...    ........            ",
"                       .    .......             ",
"                       .    .....               ",
"                            ...                 ",
"                                                ",
"                                                ",
"                                                ",
"                                                ",
"                                                ",
"                                                ",
"                                                "
};
